<svg width="24" height="24" viewBox="0 0 24 24" fill="none"
                        xmlns="http://www.w3.org/2000/svg">
                        <path
                            d="M19.9284 3.5L13.4777 10.4339L13.1926 10.7403L13.4441 11.0749L20.9987 21.1251H16.2983L10.9516 14.0122L10.5927 13.5347L10.1859 13.972L3.53108 21.1251H3.1481L10.1366 13.6134L10.4217 13.307L10.1702 12.9724L3.0501 3.5H7.75045L12.6627 10.0351L13.0216 10.5126L13.4285 10.0753L19.5454 3.5H19.9284ZM4.62056 3.78172H3.61921L4.22088 4.58215L16.2941 20.6437L16.4441 20.8432H16.6937H19.4278H20.4292L19.8275 20.0428L7.7543 3.98129L7.60429 3.78172H7.35462H4.62056Z"
                            fill="white" stroke="white" />
                    </svg>